 
<svg xmlns="http://www.w3.org/2000/svg"  width="11.6929in" height="16.5354in"  
viewBox="0 0 11692.91 16535.43" >
 <defs>
  <style type="text/css">
   <![CDATA[
    .fil1 {fill:#F58634}
    .fil3 {fill:#353233}
    .fil0 {fill:#1AA856}
    .fil2 {fill:#3A468E}
   ]]>
  </style>
 </defs>
 <g id="Layer_x0020_1">
  <metadata id="CorelCorpID_0Corel-Layer"/>
  <path class="fil0" d="M3101.63 3605.54c-21.37,51.23 -49.4,101.29 -72.71,153.25 -23.23,51.79 -47.42,101.25 -71.37,152.22l-38.76 74.3c-12.21,24.04 -22.92,48.53 -35.8,74.15 -12.44,24.71 -62.46,138.83 -73.67,150.12 -17.46,44.22 -43.6,95.87 -65.04,137.89 -22.24,43.59 -43.87,93.08 -64.51,139.02 -25.85,57.54 -112.02,224.19 -131.56,276.64l-0.44 1047.35c15.64,-14.04 273.66,-539.19 304.78,-601.22l227.71 -452.51c23.04,-45.97 51.24,-111.8 77.15,-152.75 12.65,-38.64 227.64,-454.9 263.98,-529.51 6.81,-13.99 30.52,-67.67 37.9,-75.19l794.74 -1588.65c6.56,-12.68 18.89,-41.72 25.56,-50.81l630.11 1253.86c29.46,59.03 190.44,370.78 209.51,419.44 16.4,18.89 27.29,49.48 39.3,71.73 14.55,26.96 24.87,50.16 37.33,75.94l189.28 377.5c12.78,25.73 28.54,53.05 37.56,79.81 24.28,37.87 51.96,102.49 73.55,145.57 71.11,141.97 512.07,1028.76 517.69,1028.18l0.66 -1048.97c-13.31,-16.22 -50.2,-103.93 -63.23,-130.82l-186.18 -394.72c-12.7,-13.21 -63.32,-122.46 -74.9,-147.48 -20.21,-43.68 -207.09,-433.35 -213.27,-454.42 -10.85,-17.39 -26.77,-54.17 -36.76,-75.61l-408.76 -857.94c-140.88,-304.6 -298.14,-632.58 -444.66,-935.29 -50.17,-103.66 -96.83,-209.36 -147.91,-312.24l-112.65 -234.04c-8.87,-19.35 -27.48,-64.45 -37.52,-78.94l-12.92 -0.11c-0.19,-0.05 -0.91,-0.49 -1.41,-0.51l-292.64 614.28c-98.54,203.68 -199.18,410.67 -293.41,616.57 -94.84,207.24 -198.04,410.3 -293.27,616.74 -71.15,154.23 -148.87,307.03 -219.48,460.37 -22.91,49.74 -55.56,108.02 -73.96,156.76z"/>
  <path class="fil1" d="M788.66 1204.99l-174.17 386.25c-11.5,22.7 -19.75,40.73 -30.46,63.11 -10.22,21.34 1.12,26.76 27.85,57.19l176.69 199.97c16,16.61 30.09,32.69 43.72,49.55 42.98,53.16 128.58,141.27 176.39,200.32l220.36 249.59c14.05,17.54 28.96,35.63 42.86,50.53l111.19 125.31c8.97,10.59 10.57,13.09 21.91,24.78l176.55 200.09c29.27,33.97 57.65,63.61 85.79,102.9l72.85 78.44c56.09,62.38 122.84,143.51 178.15,201.87 7.04,7.43 9.38,12.78 16.53,20.28 78.31,82.2 172.48,203.01 250.5,282.69 31.02,31.69 91.93,108.81 124.82,141.9l71.59 81.78c8.25,8.24 9.76,11.67 16.89,19.87l89.38 100.47c6.99,8.77 8.1,11.91 17.07,19.72 14.7,12.79 38.85,45.26 53.15,60.19l251.05 287.79c11.22,-11.29 61.24,-125.41 73.67,-150.12 12.89,-25.62 23.59,-50.11 35.8,-74.15l38.76 -74.3c23.96,-50.97 48.14,-100.43 71.37,-152.22 23.31,-51.96 51.34,-102.02 72.71,-153.25l-106.59 -113.83c-6.65,-7.33 -9.57,-12.87 -16.78,-20.05l-180.28 -193.03c-6.61,-7.87 -10.94,-10.78 -18.08,-18.44 -34.67,-37.24 -69.37,-80.32 -106.78,-116.57l-88.14 -95.17c-17.01,-19.12 -35.66,-45.2 -52.98,-60.48l-178.08 -191.87c-11.78,-14.07 -23.6,-24.19 -35.34,-37.95 -22.33,-26.18 -49,-51.72 -70.76,-79.34l-71.04 -75.52c-39.73,-46.92 -119.54,-128.32 -158.35,-174.96l-141.62 -155.22c-8.08,-8.03 -11.25,-9.93 -18.25,-18.29l-283.73 -309.59c-7.05,-7.15 -10.36,-12.65 -16.65,-20.17l-587.76 -638.78c-9.89,-12.07 -22.16,-27.24 -34.98,-38.39 -21.82,-18.97 -36.82,-40.25 -53.81,-59.63l-56.61 -56.9c-6.78,6.87 -32.75,61.65 -36.36,73.62z"/>
  <path class="fil1" d="M5476.99 3635.48c6.17,21.06 193.06,410.74 213.27,454.42 11.58,25.02 62.2,134.27 74.9,147.48l170.98 -197.89c71.39,-87.79 174.06,-195.98 241.11,-278.98 52.19,-64.6 134.56,-151.94 188.28,-218.39l104.24 -118.96c46.29,-57.78 115.11,-129.19 154.04,-179.43 10.85,-14 22.8,-25.38 33.76,-39.49l190.77 -219.19c7.98,-9.17 9.72,-15.02 21.38,-20.24 10.57,-15.87 18.05,-29 32.14,-42.93 10.27,-10.15 25.15,-29.14 35.09,-41.73 11.41,-14.44 25.37,-26.72 36.28,-40.21l385.3 -448.04c24.2,-23.86 169.65,-200.04 209.87,-243.46l420.45 -488.67c-16.01,-45.95 -41.11,-90.7 -61.91,-133.33 -21.59,-44.25 -42.36,-88.33 -63.73,-132.86 -16.87,-35.14 -113.76,-249.93 -124.87,-263.61 -14.23,6.41 -84.79,93.98 -104.98,113.41l-281.65 311.57c-7.26,7.24 -10.16,12.67 -16.81,20.01l-71.54 78.3c-7.22,7.51 -11.06,14.34 -18.13,22.05 -7.12,7.76 -11.46,10.56 -17.94,18.59l-34.28 39.15c-6.82,8.42 -12.45,12.21 -19.56,20.3l-121.88 134.78c-15.31,16.54 -33.8,41.64 -53.27,60.17l-1057.44 1175.88c-7.33,8.94 -8.35,10.2 -17.67,18.98l-407.61 452.38c-8.8,10.83 -27.95,32.96 -38.6,39.96z"/>
  <path class="fil1" d="M3157.4 4604l21.13 17.48c9.91,9.83 10.76,13.59 18.04,21.97l360.09 406.47c11.11,12.08 23.36,30.57 34.81,42 15.83,15.78 21.58,23.08 36.89,39.64 42.46,45.95 99.9,119.24 145.19,164.85 7.04,7.08 9.96,12.56 16.74,20.04l378.2 428.39c11.41,11.17 24.38,27.45 35.57,41.06l110.96 123.51c8.32,-4.46 3.19,-0.67 9.88,-7.83l26.5 -30.14c50.93,-62.6 103.76,-119.26 153.95,-179.53l430.09 -496.56c53.91,-65.21 141.45,-156.82 189.17,-217.37 7.1,-9.01 10.41,-12.24 18.54,-21.46l188.46 -218.19c21.55,-25.3 71.81,-89.66 91.08,-100.18 -9.02,-26.76 -24.79,-54.08 -37.56,-79.81l-189.28 -377.5c-12.46,-25.79 -22.79,-48.99 -37.33,-75.94 -12.01,-22.25 -22.9,-52.84 -39.3,-71.73 -4.06,10.03 -151.73,170.5 -174.57,198.15 -8.13,9.85 -15.86,15.88 -23.96,25.94l-200.74 222.62c-10.01,9.58 -15.56,17.98 -24.82,28.62l-126.72 139.92c-25.82,24.82 -111.13,127.39 -150.18,166.37l-98.69 111.53c-16.01,-4.92 -22.96,-15.52 -32.2,-26.96l-53.61 -59.67c-33.76,-40.98 -95.28,-99.38 -132.52,-144.26l-268.01 -292.02c-9.55,-10.89 -18.26,-17.74 -27.57,-29 -47.04,-56.93 -140.02,-147.72 -186.31,-203.73l-106.91 -116.41c-16.67,-20.54 -37.37,-37.87 -53.11,-54.96 -7.39,7.51 -31.09,61.2 -37.9,75.19 -36.34,74.61 -251.33,490.87 -263.98,529.51z"/>
  <path class="fil2" d="M2547.76 5810.48l0.44 -1047.35c-0.57,-0.7 -1.24,-1.69 -1.59,-2.2l-111.24 -229.81c-69.24,-148.1 -154.56,-314.74 -219.39,-460.46 -35.11,-78.93 -74.35,-151.63 -109.94,-230.07 -71.1,-156.68 -148.22,-306.37 -220.31,-462.94 -35.83,-77.83 -72.07,-154 -109.14,-231.1 -17.14,-35.65 -103.02,-210.54 -109.26,-231.97 -28.14,-39.29 -56.52,-68.93 -85.79,-102.9l-176.55 -200.09c-11.34,-11.69 -12.94,-14.19 -21.91,-24.78l-111.19 -125.31c-13.9,-14.9 -28.81,-32.99 -42.86,-50.53l-220.36 -249.59c-47.81,-59.06 -133.41,-147.17 -176.39,-200.32 -13.63,-16.86 -27.72,-32.94 -43.72,-49.55l-176.69 -199.97c-26.74,-30.43 -38.08,-35.84 -27.85,-57.19 10.72,-22.38 18.96,-40.41 30.46,-63.11l174.17 -386.25c-15.37,18.32 -180.91,380.88 -207.13,429.78 -18.6,34.69 -6.39,46.44 9.69,77.4 55.65,107.19 114.7,246.65 171.13,358.93 48.15,95.82 88.82,193.2 137.85,288.67 23.15,45.08 44.5,96.52 66.46,143.74 88.75,190.81 187.2,384.87 275.86,577.41 22.61,49.1 45.47,97.33 68.73,144.63 46.92,95.4 90.05,193.46 137.79,288.74l136.45 286.78c131.16,284.25 281.61,579.94 412.26,864.41 132.02,287.48 278.09,577.97 411.38,865.51l121.05 252.04c3.79,7.93 12.44,34.25 17.59,27.43z"/>
  <path class="fil2" d="M6869.72 2964.8c-10.85,31.48 -88.19,187.11 -105.69,225.87 -48.41,107.25 -107.8,226.05 -159.58,333.55 -18.17,37.72 -34.55,76.51 -53.13,113.67 -37.52,75.01 -70.32,150.36 -107.9,225.4 -52.71,105.27 -107.86,230.42 -159.95,336.91 -18.89,38.61 -36,73.13 -54.17,112.33 -35.06,75.67 -72.31,146.23 -106.71,223.26 -34.03,76.18 -70.73,153.04 -108.02,227.13l-0.66 1048.97c11.23,-9.8 26.11,-47.1 32.92,-61.83l711.91 -1494.81c83.32,-174.08 166.8,-344.44 247.28,-519.26 80.04,-173.83 165.34,-345.24 247.71,-518.98 82.78,-174.61 164.68,-344.14 247.27,-519.21 40.98,-86.87 83.39,-172.41 123.13,-260.3 38.99,-86.23 80.95,-175.19 123.53,-259.74 42.9,-85.2 81.7,-172.63 122.94,-260.5 13.63,-29.06 122.85,-246.59 118.26,-257.49l-420.45 488.67c-40.22,43.41 -185.67,219.59 -209.87,243.46l-385.3 448.04c-10.91,13.49 -24.87,25.78 -36.28,40.21 -9.95,12.59 -24.83,31.58 -35.09,41.73 -14.09,13.92 -21.57,27.06 -32.14,42.93z"/>
  <path class="fil3" d="M824.03 331.35c-58.21,5.15 -102.69,14.44 -151.39,34.65 -75.92,31.49 -143.57,118.48 -174.61,191.98 -19.44,46.04 -26.29,103.98 -22.27,160.39 8.26,115.89 66.14,188.77 122.74,243.2 60.07,57.78 157.66,101.87 273.32,96.48 147.53,-6.87 264.82,-107.7 317.73,-231.85 38.67,-90.74 33.85,-214.76 -13.44,-302.33 -20.45,-37.87 -48.55,-81.48 -78.19,-105.05l-51.43 -38.71c-15.81,-10.57 -41.56,-24.92 -61.17,-32.11 -46.87,-17.18 -106.66,-21.48 -161.29,-16.65z"/>
  <path class="fil3" d="M4325.31 324.97l-77.59 0c-16.5,7.65 -113.44,9.85 -192.62,73.39 -85.41,68.54 -147.01,172.27 -142.92,306.72 4.11,134.85 94.78,267.28 216.47,319.62 47.37,20.37 85.41,33.94 146.37,33.43 341.57,-2.86 481.49,-383.24 286.04,-609.28 -105.8,-122.35 -202.06,-108.83 -235.75,-123.89z"/>
  <path class="fil3" d="M7688 329.93c-55.07,4.09 -106.97,11.31 -150.18,34.55 -120.99,65.1 -203.1,200.44 -191.71,356.13 7.16,97.8 55.24,183.11 122.17,244.34 143.18,130.98 378.56,126.65 518.26,-28.57 60.31,-67 99.04,-147.88 94.87,-271.56 -1.85,-55.14 -18.59,-100.56 -39.29,-143.67 -19.41,-40.44 -73.99,-102.8 -102.61,-123.94 -81.43,-60.16 -141.51,-75.46 -251.52,-67.29z"/>
 </g>
</svg>
